<?xml version="1.0" standalone="no"?>
<!DOCTYPE svg PUBLIC "-//W3C//DTD SVG 20010904//EN"
 "http://www.w3.org/TR/2001/REC-SVG-20010904/DTD/svg10.dtd">
<svg version="1.0" xmlns="http://www.w3.org/2000/svg"
 width="920.000000pt" height="920.000000pt" viewBox="0 0 920.000000 920.000000"
 preserveAspectRatio="xMidYMid meet">

<g transform="translate(0.000000,920.000000) scale(0.100000,-0.100000)"
fill="#000000" stroke="none">
<path d="M8772 8520 c5 -17 -23 -48 -39 -43 -6 3 -29 -7 -50 -20 -21 -13 -53
-28 -70 -31 -17 -4 -37 -14 -43 -22 -7 -7 -17 -11 -23 -7 -6 4 -8 0 -4 -10 4
-12 1 -15 -14 -12 -15 3 -19 0 -15 -10 3 -8 0 -17 -6 -21 -7 -4 -8 -3 -4 4 10
17 -44 15 -67 -2 -16 -12 -15 -16 9 -52 15 -21 47 -62 71 -91 l44 -52 -43 -22
c-136 -69 -453 -294 -668 -473 -385 -322 -921 -866 -1223 -1245 -18 -22 -84
-104 -147 -183 -154 -191 -280 -355 -280 -364 0 -4 8 0 18 9 15 14 19 14 19 3
0 -8 -3 -15 -6 -14 -3 0 -9 -1 -13 -2 -5 -1 -14 -3 -20 -4 -8 -1 -12 -12 -10
-26 1 -18 -1 -21 -7 -11 -7 10 -13 7 -27 -13 -11 -15 -43 -58 -72 -96 -31 -40
-50 -75 -46 -81 4 -7 3 -9 -3 -6 -14 9 -96 -110 -87 -125 4 -7 3 -8 -4 -4 -16
9 -43 -35 -37 -62 2 -13 0 -20 -6 -17 -5 4 -6 12 -2 18 4 7 0 6 -10 -2 -20
-16 -23 -36 -4 -25 7 4 9 3 4 -2 -5 -5 -13 -9 -18 -9 -14 0 -79 -97 -72 -108
3 -6 1 -7 -5 -3 -7 4 -14 -3 -18 -19 -3 -14 -10 -25 -15 -25 -5 0 -16 -11 -25
-26 -19 -27 -11 -44 22 -46 11 -1 20 -9 20 -18 0 -12 -6 -15 -19 -12 -15 4
-16 7 -5 14 10 7 8 8 -7 6 -14 -2 -19 -11 -20 -32 0 -16 -5 -31 -12 -33 -7 -3
-10 -10 -7 -18 9 -23 -12 -26 -32 -4 -10 11 -14 19 -9 18 24 -7 52 12 51 34
-1 12 2 28 8 36 8 10 6 12 -9 10 -10 -2 -18 -8 -18 -14 0 -5 -7 -15 -15 -21
-9 -7 -12 -16 -7 -24 5 -8 4 -11 -2 -7 -9 6 -70 -78 -69 -93 1 -3 -9 -16 -21
-30 -25 -26 -30 -49 -10 -46 6 1 12 6 12 11 0 6 -4 9 -8 7 -16 -5 4 18 25 29
15 8 19 8 14 0 -4 -7 1 -11 13 -11 11 0 23 5 27 12 5 7 2 9 -8 6 -8 -4 -20 3
-28 15 -12 20 -12 21 3 8 11 -9 17 -10 17 -2 0 6 -6 11 -12 12 -7 0 -3 4 9 9
15 6 21 15 17 25 -10 26 16 17 28 -10 12 -27 23 -31 34 -13 5 7 2 9 -7 4 -8
-4 -2 2 14 14 15 12 27 26 27 32 0 6 -7 5 -17 -3 -17 -13 -17 -12 -2 6 9 11
18 25 20 32 6 18 25 2 33 -27 l7 -25 -16 25 c-16 24 -16 24 -12 2 4 -14 -1
-25 -12 -31 -9 -5 -17 -19 -18 -30 -1 -12 2 -19 6 -17 4 3 8 -4 8 -15 1 -10
-3 -19 -9 -19 -7 0 -7 -4 0 -12 7 -9 6 -17 -5 -27 -13 -12 -14 -11 -8 8 4 12
2 21 -4 21 -6 0 -11 -6 -11 -14 0 -8 -6 -16 -14 -19 -9 -4 -12 -14 -9 -26 3
-12 1 -21 -4 -21 -5 0 -9 -13 -8 -29 0 -17 4 -27 10 -23 5 3 7 2 3 -3 -4 -4
-3 -17 3 -29 10 -20 9 -20 -5 -2 -20 25 -51 14 -37 -13 11 -19 6 -31 -13 -31
-7 0 -7 3 1 8 8 5 9 13 3 22 -8 13 -10 12 -10 -3 0 -10 -5 -15 -11 -12 -6 4
-8 10 -5 13 3 3 -1 14 -11 24 -15 17 -15 18 1 18 9 0 14 5 11 10 -5 8 -11 7
-21 -1 -12 -10 -15 -10 -12 2 2 8 -3 13 -9 12 -7 -2 -13 1 -13 7 0 5 -7 7 -15
4 -8 -4 -15 -10 -15 -15 0 -4 7 -5 17 -2 12 5 14 3 8 -8 -4 -8 -5 -11 0 -7 4
4 14 3 22 -3 14 -12 18 -30 6 -28 -26 4 -34 -1 -21 -15 11 -12 14 -12 21 0 7
12 12 10 29 -11 23 -29 19 -45 -5 -21 -14 14 -16 13 -25 -12 -6 -15 -11 -20
-11 -11 -1 9 -9 23 -18 30 -9 8 -14 10 -11 4 3 -5 2 -19 -3 -30 -6 -17 -8 -16
-9 10 -1 28 -2 29 -10 8 -5 -13 -11 -23 -13 -23 -6 0 -2 34 6 47 8 12 -10 12
-30 0 -16 -10 -17 5 -2 20 6 6 18 9 25 6 8 -3 14 0 14 6 0 6 4 11 9 11 5 0 7
-10 4 -22 -3 -13 -3 -21 0 -18 3 3 7 14 9 25 2 14 -3 20 -19 21 -13 1 -20 -3
-16 -9 4 -6 1 -7 -6 -2 -9 5 -7 12 8 26 12 11 21 24 21 30 0 6 4 8 9 5 4 -3
17 1 27 9 15 12 15 14 2 9 -13 -4 -15 -1 -11 15 3 12 1 21 -4 21 -11 0 -44
-55 -37 -63 3 -3 -3 -10 -14 -16 -10 -6 -25 -25 -33 -43 -7 -18 -16 -35 -19
-38 -17 -14 -51 -71 -49 -82 5 -22 -12 -57 -24 -53 -17 7 -59 -56 -47 -70 6
-7 6 -15 -1 -22 -8 -8 -7 -13 0 -18 6 -3 10 -3 9 2 -2 4 2 8 7 8 6 0 9 -4 7
-10 -2 -5 0 -7 4 -2 4 4 9 18 11 30 2 16 0 18 -6 8 -5 -8 -11 -9 -15 -3 -3 6
-2 13 3 17 6 3 8 12 4 20 -9 25 6 16 21 -12 8 -16 15 -23 16 -18 0 6 -7 20
-15 31 -19 28 -7 39 19 17 14 -12 17 -13 9 -3 -7 9 -8 21 -4 29 11 18 16 18
34 2 10 -7 17 -10 17 -5 0 5 5 2 10 -6 9 -13 10 -13 11 0 0 8 5 4 10 -10 l8
-25 -1 25 c-1 42 2 50 13 47 6 -1 12 8 14 20 1 12 -3 21 -8 20 -5 -1 -11 3
-14 10 -7 20 30 7 38 -13 7 -18 8 -18 9 1 l1 20 8 -20 c10 -24 3 -45 -12 -42
-6 1 -13 -8 -15 -21 -4 -26 35 -95 49 -86 5 3 9 1 9 -5 0 -5 3 -17 7 -27 4
-12 2 -15 -8 -12 -8 3 -13 11 -11 18 2 10 0 11 -11 2 -14 -12 -27 -7 -27 10 0
5 4 6 10 3 6 -3 7 1 3 10 -5 13 -7 14 -14 3 -10 -15 -9 -17 -15 41 -3 25 -7
47 -10 50 -4 3 -4 -13 -1 -37 2 -23 0 -45 -4 -48 -5 -3 -7 -10 -3 -15 3 -5 10
-7 15 -3 6 3 9 -2 7 -12 -2 -10 3 -19 10 -20 6 -1 15 -3 20 -4 4 -1 10 -2 15
-1 4 0 7 -6 7 -14 0 -18 -12 -19 -27 -4 -8 8 -13 8 -17 0 -12 -19 -15 -50 -6
-56 4 -3 6 -14 3 -25 -3 -11 -9 -17 -14 -15 -4 3 -6 12 -3 19 3 8 1 17 -5 21
-7 4 -8 -1 -4 -12 6 -16 5 -17 -13 -3 -10 8 -16 10 -11 5 4 -4 -3 -19 -15 -32
-12 -13 -18 -23 -13 -23 4 0 0 -10 -11 -22 l-19 -23 22 19 c13 10 20 22 18 26
-2 4 4 15 14 24 15 14 20 14 29 3 9 -10 8 -19 -4 -35 -8 -12 -19 -20 -23 -17
-5 2 -17 -5 -27 -18 -14 -16 -14 -18 -2 -9 10 8 19 9 22 3 3 -5 1 -11 -6 -13
-8 -3 -8 -7 -2 -11 6 -3 32 31 58 75 26 45 41 76 33 69 -10 -7 -17 -8 -21 -2
-4 5 -2 12 3 16 6 3 7 13 4 23 -6 15 -4 15 15 -2 21 -18 22 -18 28 0 4 11 16
33 28 49 18 27 18 29 1 15 -17 -14 -18 -13 -13 8 4 12 2 20 -3 16 -5 -3 -9 -1
-9 5 0 18 20 23 26 7 9 -24 23 -19 35 11 6 15 13 30 17 33 15 11 63 91 61 103
-3 25 1 36 14 32 6 -3 22 12 34 34 19 33 20 40 8 45 -10 3 -15 -1 -15 -11 0
-22 -9 -12 -13 15 -2 11 -12 31 -22 42 -24 26 -28 51 -8 43 8 -3 19 0 24 8 7
11 9 11 9 1 0 -7 4 -11 9 -8 10 7 9 25 -1 41 -4 6 -3 17 3 25 5 8 9 29 10 45
2 30 2 30 9 -5 4 -19 8 -28 9 -19 0 9 9 16 19 15 9 0 16 5 15 11 -2 7 3 12 10
10 6 -1 11 3 10 10 -2 7 4 10 13 6 15 -5 15 -7 0 -15 -20 -11 -21 -28 0 -28 9
0 12 5 8 12 -5 7 -3 8 6 3 10 -6 9 -11 -4 -21 -9 -6 -13 -14 -9 -16 4 -3 3 -3
-4 -2 -7 2 -15 -1 -18 -6 -4 -6 0 -10 7 -10 10 0 9 -3 -2 -10 -9 -5 -19 -5
-26 0 -6 6 -15 6 -19 2 -5 -4 -5 -1 -1 6 4 7 11 10 15 8 4 -3 12 4 19 15 7 11
8 19 2 19 -5 0 -10 -5 -10 -11 0 -5 -4 -8 -9 -4 -5 3 -12 1 -16 -5 -4 -6 -10
-8 -15 -5 -5 3 -7 -9 -6 -27 2 -18 -1 -39 -7 -45 -6 -9 -6 -13 1 -13 6 0 16 8
21 18 6 10 11 12 11 4 0 -10 5 -10 23 -2 19 9 20 9 6 -2 -15 -12 -22 -48 -9
-48 3 0 13 13 22 28 14 23 15 31 5 41 -9 10 -8 11 4 6 18 -7 53 31 43 47 -3 4
-2 8 3 8 4 0 18 15 29 33 12 17 67 101 123 185 56 85 98 159 95 164 -4 7 -2 8
4 4 11 -7 17 6 13 27 -1 5 3 6 8 2 6 -3 33 29 61 70 45 66 50 78 38 93 -11 15
-11 15 3 4 14 -11 30 7 125 140 59 84 129 180 154 213 25 33 81 106 124 163
43 56 81 102 85 102 13 0 137 -268 181 -389 103 -285 169 -656 170 -956 0
-104 -23 -383 -41 -494 -7 -46 -7 -67 2 -77 9 -11 15 -11 25 -3 17 14 18 -2 2
-21 -11 -12 -10 -12 5 -1 20 16 21 43 2 91 l-14 35 2 -34 c1 -20 -3 -36 -10
-38 -7 -3 -13 0 -13 7 0 6 4 9 9 6 4 -3 7 13 5 34 -2 27 1 38 8 33 7 -4 9 0 5
10 -9 25 -2 21 18 -9 9 -15 12 -23 6 -20 -6 4 -11 0 -11 -8 0 -12 5 -14 23 -7
24 9 31 11 47 11 6 0 10 4 10 9 0 4 -10 8 -22 7 -19 -1 -23 4 -21 27 1 15 -2
25 -6 22 -5 -2 -16 4 -26 15 -10 11 -16 20 -14 21 2 0 12 2 21 4 9 2 22 -3 29
-11 6 -8 8 -14 5 -14 -4 0 -1 -10 6 -22 7 -13 11 -27 10 -31 -1 -5 2 -6 8 -2
7 4 7 13 -1 27 -9 16 -8 19 1 13 10 -6 12 -1 8 18 -3 15 -2 24 3 22 4 -3 6 12
5 33 -1 21 1 47 6 58 18 41 -5 -199 -32 -336 -101 -508 -332 -973 -683 -1376
-58 -67 -104 -124 -101 -128 2 -3 1 -4 -2 -1 -4 2 -52 -37 -108 -88 -55 -51
-122 -109 -148 -131 -26 -21 -45 -43 -41 -49 3 -6 1 -7 -5 -3 -6 4 -37 -13
-69 -37 -32 -24 -70 -52 -85 -61 -18 -12 -25 -23 -21 -34 4 -10 8 -12 11 -4 2
7 8 10 13 7 5 -4 6 2 2 12 -6 16 -5 17 13 3 18 -14 18 -14 5 2 -7 10 -9 18 -3
18 15 0 33 -26 24 -35 -4 -5 -2 -5 5 -1 6 3 14 2 18 -4 4 -7 13 -7 26 0 11 6
17 15 14 20 -3 5 -1 11 4 14 10 7 3 46 -8 46 -4 0 -7 -16 -6 -35 1 -19 -2 -35
-8 -35 -5 0 -7 14 -4 33 3 17 3 26 0 19 -2 -6 -9 -9 -14 -6 -6 3 -7 -5 -3 -22
6 -25 5 -26 -9 -13 -21 19 -5 42 53 75 25 14 36 18 26 10 -19 -16 -19 -16 7
-14 16 1 27 8 28 18 0 10 3 9 9 -5 7 -17 9 -17 9 -2 1 24 -3 32 -13 29 -5 -2
-4 4 3 12 19 22 30 11 25 -24 -4 -24 -2 -29 11 -24 9 4 14 13 11 20 -3 8 -1
13 4 11 5 -1 15 7 23 17 11 15 16 16 22 6 5 -9 4 -11 -3 -6 -11 7 -17 -8 -12
-29 8 -30 6 -63 -3 -58 -6 3 -7 1 -3 -5 3 -6 2 -13 -4 -17 -6 -4 -9 4 -8 19 1
15 6 26 10 26 4 0 8 4 8 8 0 5 -7 9 -16 9 -10 0 -14 -7 -11 -17 6 -24 -11 -52
-26 -43 -7 4 -16 8 -22 8 -5 0 -9 10 -7 22 2 17 -1 20 -18 16 -11 -3 -20 -10
-20 -16 0 -6 -7 -2 -16 9 -15 18 -15 17 -1 -7 12 -20 13 -29 4 -38 -6 -6 -7
-11 -3 -11 5 0 2 -8 -5 -17 -12 -16 -12 -17 2 -6 12 10 18 10 29 0 8 -6 7 -3
-3 9 -9 11 -14 23 -11 27 4 3 16 -5 26 -19 14 -18 24 -22 32 -15 9 7 17 7 26
-2 12 -10 12 -9 2 4 -10 14 -10 18 3 23 10 4 15 -1 15 -15 0 -11 5 -17 10 -14
6 4 9 14 8 23 -2 12 4 17 19 16 13 -1 21 2 18 5 -2 4 0 13 5 20 4 8 4 27 0 43
-5 17 -5 26 1 23 5 -4 9 -16 10 -28 0 -21 1 -21 9 -2 8 19 9 19 9 1 1 -19 1
-19 15 -1 7 10 21 20 30 21 14 2 15 -1 6 -11 -16 -19 -8 -38 17 -41 17 -3 21
1 18 16 -2 10 1 31 6 47 8 26 9 26 4 -7 -4 -33 -4 -34 10 -16 14 19 20 13 16
-19 0 -5 4 -3 11 6 10 15 14 14 34 -10 22 -24 24 -25 21 -4 -2 11 -9 29 -17
38 -17 21 -21 43 -9 51 5 3 8 2 7 -3 -2 -4 1 -8 7 -8 5 0 9 4 7 8 -1 5 2 5 8
2 8 -5 6 -13 -6 -26 -16 -17 -13 -24 9 -20 5 1 6 -3 3 -8 -4 -5 -2 -12 4 -16
5 -3 10 -2 10 4 0 5 3 17 7 27 4 12 3 15 -5 10 -8 -5 -10 -1 -5 10 5 14 8 12
20 -11 8 -15 17 -25 20 -22 2 3 0 14 -6 25 -9 16 -8 20 4 18 8 -1 18 -6 22
-11 5 -4 2 -5 -6 0 -11 6 -13 4 -8 -9 4 -10 7 -20 7 -22 0 -3 6 -2 13 2 6 4 9
4 5 -1 -10 -11 12 -36 24 -28 6 3 9 0 6 -7 -2 -8 -11 -16 -19 -18 -8 -3 -11
-1 -7 3 4 5 3 14 -3 22 -10 11 -15 11 -27 1 -10 -8 -13 -8 -9 -2 4 7 0 17 -8
24 -12 10 -15 10 -15 -3 0 -9 4 -18 10 -22 5 -3 7 -12 4 -19 -3 -7 9 -29 27
-47 17 -19 28 -28 24 -20 -6 11 -4 13 9 8 10 -4 15 -3 11 3 -3 6 -12 10 -18
10 -7 0 -13 8 -13 19 0 11 5 17 13 14 7 -3 10 -10 6 -16 -3 -6 -1 -7 6 -3 6 4
9 12 6 17 -4 5 2 9 11 9 10 0 15 -3 11 -6 -3 -4 0 -13 8 -20 14 -15 29 -19 22
-7 -3 5 2 15 11 22 14 13 15 12 10 -7 -4 -14 -2 -20 5 -15 6 4 8 -1 5 -14 -4
-16 -1 -20 11 -18 9 2 19 4 24 4 4 1 7 8 7 17 0 8 4 13 8 10 4 -2 14 -1 22 5
8 5 10 9 4 9 -6 0 -10 10 -9 23 2 15 -2 24 -11 24 -8 0 -14 -5 -14 -11 0 -6
-5 -4 -10 4 -5 8 -9 22 -9 30 0 13 1 13 7 0 11 -23 35 -24 27 -1 -3 11 -1 22
5 26 6 3 7 12 3 18 -4 7 0 6 10 -2 9 -7 18 -11 18 -7 1 3 2 10 3 15 0 6 8 16
16 23 13 11 13 11 3 -1 -10 -11 -8 -20 9 -43 16 -23 23 -27 29 -16 5 8 9 8 9
2 0 -7 13 -10 30 -9 29 2 30 2 15 -15 -11 -12 -13 -20 -6 -25 6 -3 14 1 17 10
5 11 9 13 14 5 5 -8 11 -6 20 5 8 10 9 15 1 15 -6 0 -11 5 -11 11 0 5 5 7 10
4 9 -6 14 8 11 28 -1 5 3 6 8 3 12 -8 33 18 23 29 -4 5 -1 5 6 1 8 -5 10 -12
4 -19 -5 -7 -7 -25 -6 -42 2 -18 0 -25 -5 -17 -6 10 -10 10 -20 -2 -14 -16 -4
-25 23 -20 43 6 34 -11 -40 -86 -43 -44 -82 -76 -87 -73 -6 3 -7 1 -4 -4 13
-20 -192 -203 -388 -348 -520 -384 -1097 -611 -1755 -692 -203 -24 -640 -24
-835 1 -688 87 -1273 325 -1805 732 -132 101 -286 239 -282 253 1 7 -1 10 -6
7 -8 -5 -136 121 -246 244 -79 88 -91 106 -74 116 7 4 8 3 4 -4 -8 -14 48 -75
59 -64 5 4 5 1 1 -5 -6 -12 5 -18 26 -14 4 0 5 -6 2 -14 -3 -8 1 -21 9 -30 20
-20 22 -19 24 5 1 11 -2 18 -6 16 -4 -3 -8 1 -8 9 0 11 4 12 14 4 10 -9 13 -8
13 4 0 9 4 19 10 22 6 4 7 -1 3 -11 -5 -13 -3 -15 7 -9 8 5 11 4 7 -2 -4 -6 0
-16 7 -22 9 -7 17 -8 20 -2 5 8 27 8 46 1 3 -1 8 -2 12 -1 4 0 5 -6 2 -14 -4
-8 -1 -15 4 -15 18 0 25 20 12 34 -15 18 -21 54 -10 61 4 3 7 -3 5 -12 -1 -10
6 -33 17 -50 18 -31 17 -38 -6 -34 -5 1 -4 -5 4 -13 7 -10 8 -16 2 -16 -6 0
-13 4 -17 10 -4 6 -15 6 -32 -1 -22 -8 -24 -7 -14 5 8 10 9 16 1 21 -5 3 -11
4 -11 1 -1 -3 -3 -10 -4 -16 -1 -5 -3 -17 -4 -26 0 -8 -5 -13 -10 -9 -6 3 -8
14 -6 24 3 15 -1 19 -16 16 -11 -2 -17 0 -14 6 4 5 11 7 16 4 5 -4 9 -2 9 4 0
20 -18 20 -35 1 -11 -13 -14 -20 -6 -20 7 0 10 -4 7 -9 -3 -5 1 -14 9 -21 8
-7 15 -9 15 -5 0 4 6 3 13 -4 10 -8 17 -7 25 1 9 9 12 9 12 0 0 -6 -7 -15 -16
-20 -13 -7 -10 -11 15 -22 18 -7 28 -17 24 -24 -4 -6 1 -5 10 3 18 14 22 22
10 20 -5 -1 -15 -1 -23 1 -11 1 -9 4 5 10 15 7 16 9 4 9 -16 1 -35 41 -20 41
10 0 47 -41 54 -60 4 -12 6 -12 6 2 1 9 -4 20 -9 23 -12 7 -4 25 11 25 6 0 8
-4 4 -9 -3 -5 -1 -12 5 -16 6 -4 7 -12 3 -18 -4 -7 2 -5 12 3 17 14 18 13 12
-3 -6 -15 -4 -16 13 -7 14 8 21 6 28 -5 9 -16 42 -11 42 7 0 5 4 7 9 4 5 -4 7
2 4 12 -2 10 3 24 11 31 19 16 21 1 4 -19 -11 -12 -10 -12 3 -2 9 6 19 8 24 4
4 -4 3 2 -2 13 -6 11 -9 28 -8 38 2 11 -1 15 -8 10 -7 -3 -4 2 5 13 12 14 14
24 8 30 -7 7 -3 17 12 30 13 10 18 12 12 4 -6 -8 -10 -23 -9 -32 2 -10 0 -20
-5 -23 -10 -6 5 -74 20 -89 10 -8 10 -6 1 11 -14 27 -14 56 -1 48 6 -3 10 0
11 7 0 7 4 4 9 -7 13 -31 11 -39 -7 -24 -15 13 -15 12 -4 -10 10 -19 15 -21
22 -10 5 8 9 9 9 3 0 -20 -35 -45 -48 -34 -7 6 -5 2 3 -8 14 -15 17 -15 25 -2
9 13 10 13 10 0 0 -9 3 -11 8 -5 8 12 22 13 37 3 6 -4 17 -3 24 1 9 6 10 11 2
15 -6 4 -11 2 -11 -4 0 -6 -5 -8 -10 -5 -6 3 -8 17 -6 30 4 19 1 23 -15 20
-21 -4 -21 -3 -24 37 -1 15 1 26 5 25 5 -1 8 3 8 8 0 6 -3 9 -7 8 -4 -1 -8 4
-8 11 0 13 60 16 65 3 5 -16 1 -19 -11 -8 -18 14 -30 2 -15 -16 9 -11 8 -13
-3 -11 -8 2 -13 -3 -11 -10 1 -8 -2 -11 -9 -6 -7 4 -10 1 -7 -7 3 -8 12 -15
21 -17 12 -3 15 1 11 15 -4 13 -3 14 4 5 7 -11 10 -9 15 7 3 12 11 20 19 19 7
-2 12 4 10 14 -3 20 14 33 23 18 5 -8 12 -7 23 2 13 11 14 11 7 -2 -5 -8 -10
-22 -10 -30 0 -8 -6 -14 -13 -12 -13 2 -13 -41 1 -54 4 -4 3 -12 -2 -18 -9
-10 -11 -16 -11 -33 0 -5 -4 -1 -10 7 -5 8 -6 19 -1 25 4 5 4 26 0 45 -6 31
-14 17 -10 -17 1 -6 -3 -15 -9 -18 -7 -4 -10 -1 -8 6 1 8 -2 14 -7 14 -15 1
-7 -22 20 -50 13 -14 26 -22 29 -16 3 5 14 7 24 4 12 -3 24 4 35 20 15 23 15
26 0 39 -15 11 -16 11 -10 -4 3 -10 2 -20 -4 -23 -5 -4 -7 -10 -4 -15 3 -4 -2
-7 -10 -6 -18 3 -21 21 -4 21 7 0 13 16 15 35 l3 35 -12 -30 c-7 -16 -15 -25
-18 -20 -3 6 5 30 18 55 19 37 22 40 17 15 -4 -23 -3 -26 5 -15 10 13 11 13
11 0 0 -13 2 -13 11 0 9 12 10 12 5 -3 -3 -10 -6 -22 -6 -25 0 -4 -5 0 -10 8
-5 8 -10 10 -10 4 0 -13 38 -54 50 -54 5 0 6 12 3 28 -9 47 -8 57 5 54 10 -2
16 9 14 29 -1 3 5 6 13 6 11 0 10 -5 -2 -24 -9 -13 -13 -26 -11 -29 3 -3 14 9
25 25 l19 30 13 -22 c13 -20 13 -21 -1 -9 -13 11 -19 8 -37 -20 -11 -18 -21
-27 -21 -19 0 8 -3 11 -6 8 -4 -4 -1 -13 6 -22 8 -10 9 -15 1 -15 -6 0 -10 -6
-9 -12 2 -7 -5 -13 -15 -13 -10 0 -23 -8 -29 -18 -9 -17 -8 -18 12 -7 18 9 25
8 40 -5 17 -16 38 -6 26 13 -2 4 2 16 11 27 14 19 14 17 9 -20 -2 -22 -2 -34
0 -27 3 6 10 12 15 12 6 0 7 -6 3 -12 -6 -10 -4 -10 8 0 13 10 17 10 21 0 4
-11 6 -10 6 0 1 7 6 10 11 7 6 -4 17 -1 25 5 12 10 16 9 20 -2 3 -8 12 -15 20
-15 11 0 12 5 3 21 -11 21 -11 21 10 2 20 -17 22 -17 28 -2 7 18 34 22 34 5 0
-5 -5 -7 -12 -3 -6 4 -8 3 -4 -4 3 -6 2 -13 -4 -17 -5 -3 -10 -12 -10 -18 0
-7 5 -5 10 5 6 10 19 15 32 12 20 -4 21 -3 4 4 -17 7 -17 9 -4 14 9 4 20 2 26
-4 8 -8 15 -3 23 16 9 19 15 23 21 14 5 -9 8 -8 8 5 0 10 5 15 10 12 7 -4 6
-14 -2 -28 -10 -20 -10 -21 5 -8 20 16 23 2 5 -19 -11 -12 -10 -12 3 -2 11 8
19 8 26 1 8 -8 13 -8 17 0 4 6 1 11 -7 11 -8 0 -17 7 -21 15 -3 8 -1 15 4 15
6 0 10 -4 10 -8 0 -5 7 -9 15 -9 21 0 19 2 -18 24 -41 25 -83 24 -79 -2 2 -11
-1 -14 -9 -9 -8 4 -10 3 -5 -4 4 -7 3 -12 -3 -12 -5 0 -12 6 -14 13 -4 9 -6 9
-6 0 -1 -8 -10 -5 -26 9 -26 23 -32 38 -14 38 5 0 8 -4 4 -9 -3 -5 -1 -12 4
-15 10 -7 9 13 -2 31 -4 6 -3 14 2 18 6 3 15 -4 22 -17 11 -20 13 -20 24 -5
11 15 14 15 25 2 7 -8 16 -12 21 -9 7 4 -54 56 -179 149 -52 39 -289 281 -364
371 -388 469 -615 1016 -671 1617 -3 26 -1 47 2 47 4 0 8 -17 10 -37 3 -42 4
-52 16 -138 5 -33 8 -63 7 -67 -1 -5 2 -8 8 -8 6 0 9 -3 9 -7 -1 -5 0 -10 1
-13 1 -3 3 -22 4 -42 1 -20 5 -40 10 -45 4 -4 7 -3 6 2 -1 6 -2 17 0 25 1 11
4 9 10 -5 8 -18 9 -17 7 5 -1 14 3 27 8 28 6 2 15 8 21 13 7 6 16 4 24 -6 11
-13 11 -18 0 -28 -9 -9 -11 -9 -6 0 3 6 2 14 -4 18 -6 3 -9 -4 -8 -18 1 -17 7
-23 18 -20 17 5 24 39 10 48 -5 3 -7 19 -3 35 3 18 1 30 -5 30 -5 0 -8 -10 -5
-22 4 -19 3 -20 -6 -8 -9 13 -11 12 -11 -4 0 -15 -3 -16 -14 -7 -11 10 -15 8
-19 -6 -4 -16 -5 -16 -6 2 -1 17 -3 18 -11 5 -8 -13 -10 -12 -10 3 0 13 6 16
24 13 15 -3 27 1 30 9 3 10 -2 12 -21 9 -15 -3 -30 -7 -35 -10 -4 -3 -9 1 -10
8 -6 50 -4 65 8 65 10 0 11 -4 2 -14 -13 -17 -4 -28 14 -17 7 5 23 9 35 10 18
1 21 -2 12 -13 -9 -10 -7 -13 6 -13 15 0 17 6 11 37 -28 162 -41 510 -25 687
86 960 629 1795 1474 2264 615 341 1370 439 2060 266 450 -113 858 -329 1217
-647 l67 -59 46 38 45 39 -67 64 c-187 176 -421 335 -688 466 -287 141 -558
227 -880 277 -121 19 -179 22 -430 22 -249 0 -310 -3 -430 -22 -568 -89 -1068
-316 -1495 -678 -99 -84 -292 -279 -373 -377 -286 -344 -507 -798 -606 -1242
-48 -216 -64 -370 -65 -605 0 -124 3 -242 7 -262 6 -30 5 -38 -7 -38 -8 0 -30
-8 -48 -19 -18 -10 -85 -47 -148 -81 -63 -35 -185 -109 -270 -165 -85 -56
-160 -104 -165 -107 -6 -4 -12 5 -13 20 -1 15 -6 47 -11 72 -22 102 -42 375
-42 583 0 225 7 312 38 517 13 91 26 174 27 185 1 12 5 25 8 30 3 6 11 37 18
70 6 33 14 68 16 78 4 12 0 17 -15 17 -23 0 -29 24 -9 36 8 5 9 2 5 -9 -9 -24
20 -22 32 1 12 22 11 62 -1 78 -5 7 -1 17 9 25 15 12 16 12 9 -6 -4 -11 -4
-16 0 -12 9 8 54 140 50 144 -4 4 -21 -36 -32 -72 -8 -25 -14 -30 -42 -30 -23
1 -34 -4 -38 -18 -3 -10 -3 -21 0 -24 3 -4 2 -11 -3 -17 -8 -9 -40 -112 -50
-158 -1 -4 -3 -13 -6 -20 -34 -110 -84 -473 -93 -683 -20 -475 37 -905 179
-1342 422 -1303 1537 -2278 2889 -2527 130 -24 323 -49 459 -60 35 -3 66 -8
70 -12 3 -4 -9 -4 -27 -2 -21 3 -31 1 -29 -6 3 -6 9 -10 15 -9 5 1 8 -8 6 -20
-2 -12 -2 -16 2 -9 7 15 54 16 54 1 0 -5 5 -7 10 -4 6 4 8 11 4 16 -3 6 3 5
14 -2 12 -7 19 -16 16 -20 -5 -9 17 -6 34 4 7 5 12 3 12 -4 0 -7 7 -4 16 7 8
10 13 13 9 7 -7 -15 -7 -15 58 -17 27 0 51 3 54 8 4 5 1 6 -5 2 -6 -3 -13 -2
-16 2 -8 14 40 8 58 -7 13 -11 17 -11 22 4 5 13 9 14 15 3 7 -10 9 -10 9 2 0
13 1 13 11 0 9 -12 10 -11 6 6 -2 12 1 21 8 21 7 0 10 -9 8 -21 -4 -20 -4 -20
9 1 l13 23 13 -21 c11 -16 16 -18 28 -9 8 7 14 9 14 5 0 -4 6 -3 13 4 9 7 17
7 25 1 7 -6 10 -7 7 -4 -3 4 1 14 8 23 10 14 10 14 -5 3 -10 -8 -19 -9 -22 -3
-4 5 -15 8 -26 6 -11 -2 -20 2 -20 8 0 8 -3 8 -9 -2 -6 -9 -11 -10 -15 -2 -4
6 -12 9 -17 6 -5 -4 -9 -2 -9 2 0 5 56 15 125 21 1123 112 2140 719 2765 1652
327 488 527 1023 607 1630 26 194 26 718 0 910 -29 213 -96 530 -118 554 -4 5
-5 15 -2 22 3 8 1 14 -5 14 -8 0 -24 -42 -26 -72 -1 -3 -5 -10 -10 -15 -5 -4
-7 4 -4 19 3 15 1 25 -3 22 -5 -3 -9 4 -9 15 0 12 5 21 11 21 5 0 7 -6 3 -12
-4 -7 -3 -10 1 -5 13 11 16 45 5 52 -6 3 -7 -1 -4 -9 12 -32 -23 -16 -38 17
-8 17 -12 25 -10 17 22 -92 74 -288 79 -300 3 -8 5 -19 4 -24 -1 -5 6 -45 15
-90 41 -200 54 -378 50 -686 -3 -193 -10 -333 -20 -405 -8 -60 -18 -132 -22
-158 -4 -27 -10 -45 -13 -40 -3 5 -23 19 -44 32 -20 12 -35 27 -32 32 4 5 -1
6 -9 3 -9 -3 -16 -2 -16 2 0 5 -20 20 -45 33 -24 13 -42 28 -38 34 3 6 1 7 -5
3 -13 -8 -134 68 -124 78 3 4 -2 4 -12 0 -12 -5 -17 -4 -13 3 3 5 1 10 -6 10
-7 0 -75 33 -152 74 -77 41 -143 73 -147 72 -4 -2 -4 7 -2 20 12 52 11 399 -1
513 -35 318 -107 594 -230 881 l-52 122 155 128 c85 70 205 168 268 216 l114
89 -17 31 c-9 18 -45 78 -80 135 -34 56 -63 107 -63 112 0 19 17 10 28 -16 7
-15 17 -22 24 -18 6 4 8 3 5 -3 -4 -6 22 -60 58 -119 36 -60 65 -100 65 -89 0
10 -10 29 -22 42 -12 13 -16 23 -10 23 7 0 12 -4 12 -10 0 -5 4 -10 10 -10 5
0 7 6 4 13 -3 8 2 14 10 14 20 0 29 -26 15 -44 -18 -20 -5 -26 14 -6 14 17 12
24 -35 103 -27 47 -65 109 -85 138 l-35 53 49 57 c71 83 460 472 593 593 318
287 640 531 884 670 l75 42 -29 36 c-49 62 -173 195 -168 181z m23 -30 c3 -5
1 -10 -4 -10 -6 0 -11 5 -11 10 0 6 2 10 4 10 3 0 8 -4 11 -10z m-208 -87 c-4
-3 -2 -12 4 -19 10 -12 7 -12 -30 -5 -5 1 20 31 27 31 3 0 2 -3 -1 -7z m-117
-57 c0 -2 -7 -7 -16 -10 -8 -3 -12 -2 -9 4 6 10 25 14 25 6z m-1095 -1427 c10
-15 -1 -23 -20 -15 -9 3 -13 10 -10 16 8 13 22 13 30 -1z m0 -37 c5 0 11 -6
13 -14 2 -9 0 -8 -7 2 -9 13 -11 13 -11 -2 0 -23 -26 -13 -33 13 -4 15 -2 17
11 10 10 -5 21 -9 27 -9z m55 -64 c0 -10 5 -16 10 -13 9 6 12 -1 9 -22 0 -3 7
-10 16 -15 10 -6 14 -16 10 -29 -4 -12 -2 -19 5 -17 7 2 15 -4 17 -12 4 -13 3
-13 -6 0 -10 13 -11 13 -12 0 0 -8 -9 3 -19 25 -10 21 -16 43 -14 47 3 5 0 7
-7 6 -7 -2 -16 10 -19 27 -3 17 -12 29 -19 27 -7 -1 -10 2 -6 8 10 16 35 -8
35 -32z m-6 -38 c18 -22 38 -72 31 -78 -3 -4 -8 4 -12 16 -3 12 -9 20 -13 17
-5 -3 -6 5 -3 17 4 19 3 20 -6 8 -9 -12 -11 -11 -11 8 0 12 -4 22 -9 22 -5 0
-6 10 -3 23 6 21 6 21 10 2 2 -11 9 -27 16 -35z m-673 -337 c13 -16 12 -17 -3
-4 -10 7 -18 15 -18 17 0 8 8 3 21 -13z m44 -12 c3 -5 2 -12 -3 -15 -5 -3 -9
1 -9 9 0 17 3 19 12 6z m-144 -238 c12 -16 12 -17 -2 -6 -9 7 -20 9 -24 5 -5
-4 -5 -1 -1 6 9 16 11 15 27 -5z m-211 -77 c0 -2 -7 -7 -16 -10 -8 -3 -12 -2
-9 4 6 10 25 14 25 6z m-91 -107 c-15 -9 -32 -2 -24 11 3 5 13 6 21 3 12 -4
13 -8 3 -14z m125 13 c3 -5 -1 -9 -9 -9 -8 0 -12 4 -9 9 3 4 7 8 9 8 2 0 6 -4
9 -8z m-70 -30 c3 -5 -1 -9 -9 -9 -8 0 -12 4 -9 9 3 4 7 8 9 8 2 0 6 -4 9 -8z
m106 -18 c0 -8 -19 -13 -24 -6 -3 5 1 9 9 9 8 0 15 -2 15 -3z m-5805 -43 c-3
-6 -12 -8 -18 -4 -7 3 -4 -2 5 -13 9 -11 15 -28 13 -39 -2 -11 -4 -27 -4 -35
-1 -13 -2 -13 -11 0 -14 21 -12 33 3 24 9 -6 9 -5 0 8 -7 8 -9 19 -5 23 4 5 2
6 -3 2 -6 -3 -12 6 -13 20 -1 19 2 24 13 19 8 -3 15 0 15 6 0 6 3 9 6 5 3 -3
3 -11 -1 -16z m-32 -71 c-3 -11 -9 -23 -14 -26 -5 -3 -10 -17 -10 -32 -1 -17
-3 -21 -6 -9 -5 20 15 87 27 87 4 0 6 -9 3 -20z m5801 11 c-8 -8 -34 -10 -38
-2 -3 4 6 7 19 7 14 0 22 -2 19 -5z m1388 -40 c2 -17 1 -28 -4 -25 -4 3 -8 -1
-8 -8 0 -9 -3 -9 -10 2 -11 17 -13 6 -4 -27 4 -13 10 -20 15 -17 5 3 7 10 4
15 -4 5 -1 9 4 9 6 0 11 -3 12 -7 0 -5 2 -16 4 -25 2 -9 -3 -22 -11 -29 -8 -6
-11 -16 -7 -23 3 -6 2 -7 -2 -3 -12 10 -15 37 -5 34 4 -1 8 3 8 8 0 6 -4 9 -9
7 -12 -3 -31 48 -24 65 2 8 9 11 15 8 5 -3 10 1 10 10 0 10 -5 13 -12 9 -10
-6 -10 -5 -1 8 7 8 9 19 5 23 -4 5 -2 5 4 2 7 -4 14 -20 16 -36z m-1672 -35
c0 -2 -7 -7 -16 -10 -8 -3 -12 -2 -9 4 6 10 25 14 25 6z m-5536 -37 c4 6 13
11 19 11 7 0 4 -5 -5 -11 -10 -5 -18 -15 -18 -21 0 -6 7 -5 18 3 14 11 15 11
5 0 -6 -7 -9 -21 -6 -30 4 -12 3 -13 -5 -3 -5 8 -13 12 -17 10 -4 -1 -9 10
-11 27 -2 19 0 25 5 16 6 -9 11 -10 15 -2z m5593 -16 c-4 -3 -2 -12 4 -19 7
-8 6 -14 -2 -20 -7 -4 -9 -3 -5 4 3 6 2 13 -4 17 -10 6 -5 25 7 25 4 0 3 -3 0
-7z m-129 -48 c-3 -3 -9 2 -12 12 -6 14 -5 15 5 6 7 -7 10 -15 7 -18z m1768
10 c-1 -8 -5 -17 -8 -21 -5 -4 -4 16 1 34 3 9 9 -1 7 -13z m-1591 -4 c3 -5 2
-12 -3 -15 -5 -3 -9 1 -9 9 0 17 3 19 12 6z m-5662 -16 c-3 -9 -8 -14 -10 -11
-3 3 -2 9 2 15 9 16 15 13 8 -4z m5514 0 c0 -8 -4 -12 -9 -9 -5 3 -6 10 -3 15
9 13 12 11 12 -6z m-5507 -29 c0 -2 -8 -10 -17 -17 -16 -13 -17 -12 -4 4 13
16 21 21 21 13z m5514 -4 c3 -5 -1 -9 -9 -9 -8 0 -12 4 -9 9 3 4 7 8 9 8 2 0
6 -4 9 -8z m30 -22 c-6 -6 -10 -3 -10 10 0 13 4 16 10 10 7 -7 7 -13 0 -20z
m1716 20 c0 -5 -2 -10 -4 -10 -3 0 -8 5 -11 10 -3 6 -1 10 4 10 6 0 11 -4 11
-10z m-1645 -20 c3 -6 -1 -7 -9 -4 -18 7 -21 14 -7 14 6 0 13 -4 16 -10z
m-115 -14 c-4 -4 -16 -4 -26 2 -16 9 -14 10 8 9 15 -1 23 -6 18 -11z m104 -24
c3 -5 -1 -9 -9 -9 -8 0 -12 4 -9 9 3 4 7 8 9 8 2 0 6 -4 9 -8z m-83 -99 c13
-16 12 -17 -3 -4 -10 7 -18 15 -18 17 0 8 8 3 21 -13z m-144 -35 c-3 -8 -6 -5
-6 6 -1 11 2 17 5 13 3 -3 4 -12 1 -19z m123 -2 c0 -2 -6 -9 -14 -15 -11 -9
-16 -9 -22 0 -4 7 -3 9 4 5 6 -3 13 -2 17 4 6 10 15 14 15 6z m-1 -39 c-9 -7
-18 -19 -22 -27 -4 -12 -6 -12 -6 2 -1 9 7 22 17 27 24 14 30 13 11 -2z m-29
-72 c0 -2 -6 -8 -13 -14 -10 -8 -14 -7 -14 2 0 8 6 14 14 14 7 0 13 -1 13 -2z
m-163 -61 c-3 -3 -12 -4 -19 -1 -8 3 -5 6 6 6 11 1 17 -2 13 -5z m100 -19 c0
-8 -4 -12 -9 -9 -5 3 -6 10 -3 15 9 13 12 11 12 -6z m-203 -19 c-4 -9 4 -16
23 -20 20 -5 29 -13 30 -29 2 -20 1 -20 -8 -4 -7 12 -17 16 -32 12 -17 -5 -19
-4 -7 4 13 9 13 11 -2 11 -18 0 -24 20 -11 33 10 11 13 8 7 -7z m-37 -18 c-3
-8 -6 -5 -6 6 -1 11 2 17 5 13 3 -3 4 -12 1 -19z m97 13 c4 -5 -1 -8 -9 -7
-21 3 -31 16 -12 16 9 0 18 -4 21 -9z m24 -25 c-7 -8 -15 -12 -17 -11 -5 6 10
25 20 25 5 0 4 -6 -3 -14z m-138 -6 c0 -5 -2 -10 -4 -10 -3 0 -8 5 -11 10 -3
6 -1 10 4 10 6 0 11 -4 11 -10z m40 -4 c0 -3 -4 -8 -10 -11 -5 -3 -10 -1 -10
4 0 6 5 11 10 11 6 0 10 -2 10 -4z m146 -28 c13 -16 14 -19 2 -10 -13 10 -17
10 -21 0 -3 -7 -4 -3 -4 10 1 12 2 22 3 22 0 0 9 -10 20 -22z m-176 2 c0 -5
-2 -10 -4 -10 -3 0 -8 5 -11 10 -3 6 -1 10 4 10 6 0 11 -4 11 -10z m71 1 c-9
-6 -10 -11 -2 -15 6 -4 16 -4 21 -1 6 4 9 2 8 -4 -2 -5 6 -17 17 -25 l20 -16
-20 7 c-11 3 -23 11 -27 17 -4 6 -13 5 -24 -5 -10 -8 -15 -9 -11 -2 4 6 3 15
-3 18 -13 8 6 35 24 35 6 0 5 -4 -3 -9z m57 -11 c-7 -10 -14 -17 -17 -15 -4 4
18 35 25 35 2 0 -1 -9 -8 -20z m-95 -26 c-7 -3 -9 -13 -6 -22 4 -15 3 -15 -6
-2 -15 22 -14 30 7 29 9 0 12 -3 5 -5z m137 -10 c0 -8 -19 -13 -24 -6 -3 5 1
9 9 9 8 0 15 -2 15 -3z m-157 -52 c-7 -16 -9 -14 -17 23 -7 28 -6 29 7 10 8
-10 12 -25 10 -33z m74 23 c8 -9 13 -18 11 -21 -3 -2 -13 5 -23 16 -21 23 -11
27 12 5z m-22 -15 c8 -13 -5 -13 -25 0 -13 8 -13 10 2 10 9 0 20 -4 23 -10z
m39 -29 c3 -5 -1 -11 -9 -15 -9 -3 -15 0 -15 9 0 16 16 20 24 6z m-188 -192
c10 -11 14 -19 9 -17 -6 2 -11 -1 -12 -7 -2 -5 1 -10 6 -10 5 0 13 -4 18 -9 5
-5 3 -6 -4 -2 -8 4 -13 1 -13 -9 0 -9 4 -14 9 -10 15 9 25 -15 12 -28 -9 -9
-10 -7 -5 7 5 13 4 17 -4 12 -7 -4 -12 -14 -12 -22 0 -8 -5 -12 -10 -9 -8 5
-8 11 0 20 7 9 7 14 1 17 -9 2 -24 88 -16 88 1 0 10 -9 21 -21z m-17 -105 c10
-23 10 -26 -5 -20 -14 5 -15 4 -4 -9 10 -12 8 -23 -9 -60 -12 -25 -26 -43 -31
-40 -6 3 -10 -3 -10 -14 0 -12 -4 -21 -10 -21 -5 0 -7 -8 -4 -17 4 -13 0 -11
-13 5 l-19 23 -14 -25 -13 -26 -19 27 c-10 16 -17 39 -17 53 1 23 2 23 8 -4
11 -52 64 -35 54 18 -3 20 -3 20 5 1 5 -11 7 -25 5 -31 -2 -6 3 -11 12 -11 17
0 20 13 5 22 -16 10 -12 52 5 52 9 0 15 -9 15 -21 0 -18 -2 -19 -11 -6 -8 12
-10 12 -7 1 2 -8 11 -15 20 -17 13 -1 14 4 7 35 -5 20 -9 39 -9 42 0 9 -30 7
-30 -3 0 -4 5 -8 10 -8 6 0 10 -4 10 -10 0 -14 -24 -8 -30 8 -5 11 -9 11 -20
-3 -7 -9 -9 -15 -4 -13 5 2 10 -1 11 -7 0 -5 -3 -9 -8 -8 -5 2 -5 -7 0 -20 6
-14 6 -30 0 -38 -6 -10 -9 -6 -10 16 l-1 30 -9 -30 c-8 -29 -8 -28 -3 5 2 19
5 40 5 45 1 6 -1 24 -5 40 -6 26 -5 27 4 7 11 -25 30 -21 30 6 0 13 2 14 9 4
11 -18 21 -15 50 11 13 12 21 16 16 8 -6 -10 -4 -12 4 -7 9 6 9 11 0 22 -9 11
-8 14 3 14 8 0 20 -12 27 -26z m-202 -1 c0 -10 -4 -23 -9 -30 -6 -8 -3 -21 9
-39 10 -16 13 -25 6 -21 -7 5 -16 0 -22 -12 -12 -21 -42 -22 -49 -1 -4 10 -6
10 -12 0 -5 -7 -7 1 -6 19 0 17 5 31 9 31 5 0 7 -7 3 -15 -3 -8 0 -14 7 -12 7
1 11 -6 9 -18 -4 -20 -4 -20 11 0 15 20 13 40 -3 30 -19 -12 -17 38 2 57 13
13 19 16 16 6 -4 -8 -1 -15 8 -15 7 0 11 4 8 9 -5 7 3 28 10 28 1 0 3 -8 3
-17z m-4147 -298 c4 3 13 -2 19 -9 9 -10 9 -16 1 -21 -6 -4 -9 -2 -8 3 2 6 -1
10 -7 10 -5 0 -8 -5 -7 -11 2 -7 0 -9 -4 -4 -4 4 -9 18 -10 30 -2 12 0 16 2 9
3 -6 9 -10 14 -7z m61 -2 c10 -11 10 -14 2 -9 -8 4 -13 1 -13 -9 0 -9 4 -14 8
-11 5 3 9 -1 9 -8 0 -8 -7 -13 -16 -11 -9 1 -15 12 -14 28 2 44 3 46 24 20z
m5689 -153 c-24 -15 -36 -11 -14 4 10 8 21 12 24 10 2 -3 -2 -9 -10 -14z
m-5726 -25 c-4 -8 -8 -15 -10 -15 -2 0 -4 7 -4 15 0 8 4 15 10 15 5 0 7 -7 4
-15z m5370 -1734 c3 -4 -4 -17 -17 -27 -22 -19 -22 -19 -4 2 9 11 14 24 10 27
-3 4 -4 7 0 7 3 0 8 -4 11 -9z m336 -21 c-12 -16 -24 -30 -26 -30 -3 0 4 14
16 30 12 17 24 30 26 30 3 0 -4 -13 -16 -30z m-4920 5 c0 -2 -6 -5 -13 -8 -8
-3 -14 1 -14 8 0 7 6 11 14 8 7 -3 13 -6 13 -8z m4250 -9 c0 -2 -8 -10 -17
-17 -16 -13 -17 -12 -4 4 13 16 21 21 21 13z m137 -11 c0 -8 -4 -12 -9 -9 -5
3 -6 10 -3 15 9 13 12 11 12 -6z m90 0 c0 -8 -4 -12 -9 -9 -5 3 -6 10 -3 15 9
13 12 11 12 -6z m-4980 -21 c0 -10 -10 -11 -35 -5 -2 1 -1 5 2 9 8 13 33 10
33 -4z m4500 9 c-4 -3 -1 -13 6 -22 11 -14 10 -14 -5 -2 -16 12 -16 31 -1 31
4 0 3 -3 0 -7z m180 -25 c4 -28 -6 -18 -12 12 -2 12 -1 20 2 16 4 -4 8 -16 10
-28z m-4724 7 c4 -8 1 -17 -6 -21 -7 -4 -9 -4 -5 1 4 4 3 14 -3 22 -7 8 -8 13
-1 13 5 0 12 -7 15 -15z m662 -15 c-3 -5 -2 -16 1 -25 5 -13 8 -14 15 -3 7 10
9 11 9 0 0 -7 5 -10 10 -7 6 3 16 3 23 -2 18 -11 36 -12 43 -2 9 15 -4 41 -17
33 -8 -4 -7 -9 2 -15 11 -7 10 -9 -3 -9 -10 0 -18 5 -18 11 0 5 -4 7 -10 4 -6
-3 -7 1 -3 10 5 13 7 14 14 3 8 -12 13 -4 10 14 -2 16 29 -5 34 -23 4 -11 11
-17 16 -13 6 3 5 12 -3 22 -12 15 -11 16 6 2 17 -14 17 -15 -3 -32 -27 -21
-27 -19 -12 -46 8 -15 9 -28 2 -40 -9 -15 -10 -15 -11 0 0 10 -7 15 -17 13
-10 -1 -17 -8 -15 -15 1 -6 -2 -8 -8 -5 -6 4 -9 14 -6 22 4 9 1 22 -5 29 -6 7
-8 18 -4 24 3 5 2 10 -3 10 -6 0 -12 -7 -16 -15 -3 -8 -1 -15 5 -15 6 0 7 -5
3 -11 -5 -8 -9 -8 -14 1 -5 8 -9 7 -13 -4 -4 -10 -13 -13 -23 -9 -12 4 -15 3
-10 -5 9 -15 36 -16 36 -1 0 5 5 7 10 4 6 -4 7 -11 4 -17 -5 -7 -2 -8 6 -3 8
5 11 4 6 -3 -7 -11 -72 -9 -83 2 -4 3 -2 6 4 6 10 0 12 8 16 54 1 13 5 22 9
20 9 -6 4 38 -7 56 -8 13 -6 13 8 1 9 -7 15 -17 12 -21z m3988 -3 c4 3 7 4 7
0 0 -18 -20 -13 -41 11 l-24 27 26 -23 c14 -12 29 -19 32 -15z m330 20 c3 -8
-1 -14 -8 -14 -7 0 -11 6 -8 14 3 7 6 13 8 13 2 0 5 -6 8 -13z m265 -12 c-3
-3 -9 2 -12 12 -6 14 -5 15 5 6 7 -7 10 -15 7 -18z m-5082 -12 c-4 -4 -12 -1
-19 7 -9 10 -9 11 1 6 7 -4 12 -2 13 6 0 11 2 11 6 0 3 -7 2 -16 -1 -19z m48
-1 c0 -16 -4 -34 -8 -40 -3 -6 -2 -13 3 -17 6 -3 8 -13 4 -23 -3 -10 1 -8 12
6 9 13 14 26 11 29 -3 4 -6 1 -6 -6 0 -7 -4 -9 -10 -6 -6 4 -2 15 10 27 19 20
18 44 -1 33 -5 -3 -6 1 -3 10 6 14 8 14 19 -2 9 -13 10 -22 3 -30 -7 -9 -7
-17 1 -26 8 -11 6 -18 -9 -32 -11 -10 -20 -22 -20 -27 0 -5 -7 -16 -15 -24
-13 -14 -15 -14 -15 0 0 9 5 16 12 16 6 0 8 3 5 6 -4 4 -12 3 -19 -3 -12 -8
-30 -10 -43 -3 -3 1 -9 3 -15 4 -5 0 -9 3 -8 6 1 3 -4 15 -10 27 -9 15 -9 24
-1 28 6 4 8 13 5 20 -5 15 22 14 32 -1 10 -14 37 -10 34 5 -1 7 2 10 8 6 5 -3
10 2 10 13 0 15 8 32 14 32 1 0 1 -13 0 -28z m4463 6 c-3 -8 -6 -5 -6 6 -1 11
2 17 5 13 3 -3 4 -12 1 -19z m110 -2 c1 -12 -1 -15 -4 -8 -3 6 -8 10 -12 8 -4
-3 -8 1 -8 8 0 22 23 14 24 -8z m223 4 c-6 -11 -8 -25 -5 -30 3 -5 1 -19 -5
-31 -11 -20 -11 -20 14 -4 14 10 26 25 26 34 0 10 7 26 15 37 14 18 14 17 4
-8 -9 -20 -9 -35 -2 -51 7 -15 8 -30 2 -43 -7 -13 -5 -13 7 4 20 27 33 28 31
3 0 -11 -4 -18 -8 -15 -4 2 -15 -6 -23 -18 -13 -19 -16 -20 -17 -5 -4 45 -16
62 -35 46 -12 -10 -18 -9 -31 3 -16 17 -9 43 9 32 8 -5 9 -1 5 10 -6 16 7 56
19 56 2 0 0 -9 -6 -20z m21 -7 c-12 -20 -14 -14 -5 12 4 9 9 14 11 11 3 -2 0
-13 -6 -23z m50 4 c-10 -9 -11 -8 -5 6 3 10 9 15 12 12 3 -3 0 -11 -7 -18z
m313 15 c3 -5 -1 -9 -9 -9 -8 0 -12 4 -9 9 3 4 7 8 9 8 2 0 6 -4 9 -8z m28
-14 c-7 -7 -12 -8 -12 -2 0 14 12 26 19 19 2 -3 -1 -11 -7 -17z m-4573 -42
c-3 -3 -11 5 -18 17 -13 21 -12 21 5 5 10 -10 16 -20 13 -22z m3759 5 c8 -21
7 -34 -1 -45 -10 -13 -12 -8 -12 29 0 25 0 45 1 45 1 0 7 -13 12 -29z m345 14
c-3 -9 -8 -14 -10 -11 -3 3 -2 9 2 15 9 16 15 13 8 -4z m404 -7 c-3 -8 -6 -5
-6 6 -1 11 2 17 5 13 3 -3 4 -12 1 -19z m43 12 c0 -4 -6 -13 -14 -20 -12 -9
-15 -8 -13 8 1 17 27 28 27 12z m-4860 -46 c0 -8 -5 -12 -10 -9 -6 4 -8 11 -5
16 9 14 15 11 15 -7z m57 -28 c-6 -12 -10 -27 -8 -35 2 -11 0 -11 -12 0 -13
12 -13 16 -1 30 8 9 14 20 13 25 -3 20 2 28 10 15 6 -10 5 -23 -2 -35z m41 32
c-2 -5 -8 -9 -13 -9 -5 0 -11 4 -13 9 -1 5 4 9 13 9 9 0 14 -4 13 -9z m4286
-9 c-3 -5 -10 -6 -16 -3 -6 4 -8 -2 -4 -17 6 -21 5 -22 -4 -6 -9 14 -9 22 0
32 13 16 34 10 24 -6z m-4939 1 c3 -5 -1 -10 -10 -10 -9 0 -13 5 -10 10 3 6 8
10 10 10 2 0 7 -4 10 -10z m4499 -15 c-4 -8 -10 -12 -15 -9 -11 6 -2 24 11 24
5 0 7 -7 4 -15z m-4404 -5 c0 -5 -2 -10 -4 -10 -3 0 -8 5 -11 10 -3 6 -1 10 4
10 6 0 11 -4 11 -10z m640 0 c0 -5 -5 -10 -11 -10 -5 0 -7 5 -4 10 3 6 8 10
11 10 2 0 4 -4 4 -10z m-357 -25 c-7 -21 -12 -19 -10 4 0 11 5 18 9 15 4 -3 5
-11 1 -19z m4162 3 c3 -3 -1 -11 -10 -18 -12 -10 -15 -10 -15 4 0 11 -5 14
-12 10 -6 -4 -8 -3 -5 4 7 10 32 11 42 0z m-1988 -1264 c-3 -3 -12 -4 -19 -1
-8 3 -5 6 6 6 11 1 17 -2 13 -5z m33 2 c0 -3 -4 -8 -10 -11 -5 -3 -10 -1 -10
4 0 6 5 11 10 11 6 0 10 -2 10 -4z m227 -2 c-3 -3 -12 -4 -19 -1 -8 3 -5 6 6
6 11 1 17 -2 13 -5z m-204 -39 c-7 -21 -12 -19 -10 4 0 11 5 18 9 15 4 -3 5
-11 1 -19z m361 13 c-3 -5 -9 -6 -14 -3 -5 3 -11 1 -15 -5 -4 -6 -11 -8 -16
-4 -15 9 -2 20 25 20 13 0 22 -4 20 -8z m-156 -23 c-3 -3 -9 2 -12 12 -6 14
-5 15 5 6 7 -7 10 -15 7 -18z"/>
<path d="M5653 4703 c11 -34 11 -34 23 -11 18 32 17 47 -2 23 -16 -20 -16 -20
-10 1 4 14 2 21 -7 21 -11 0 -12 -7 -4 -34z"/>
<path d="M5446 4731 c-4 -5 -2 -12 3 -15 5 -4 12 -2 15 3 4 5 2 12 -3 15 -5 4
-12 2 -15 -3z"/>
<path d="M5475 4699 c4 -10 2 -20 -4 -24 -6 -3 -11 -11 -11 -18 0 -6 7 -1 16
12 13 17 14 25 5 34 -9 9 -11 8 -6 -4z"/>
<path d="M2274 2418 c3 -10 1 -18 -5 -18 -6 0 -7 -5 -4 -11 5 -6 13 -2 22 11
8 12 12 24 9 27 -3 4 -6 0 -6 -8 0 -12 -2 -11 -11 1 -9 13 -10 12 -5 -2z"/>
<path d="M2346 2396 c18 -26 48 -32 34 -6 -5 9 -7 19 -5 22 2 2 -6 4 -19 4
-22 0 -23 -2 -10 -20z"/>
<path d="M1739 2435 c-4 -27 -5 -74 -1 -70 3 3 11 0 19 -7 8 -6 13 -7 12 -2
-4 21 2 35 11 29 6 -4 7 -12 3 -18 -4 -7 1 -6 11 2 9 8 14 21 11 29 -3 8 0 22
7 31 12 14 11 15 -5 2 -11 -9 -15 -21 -11 -34 4 -13 2 -17 -5 -13 -6 4 -11 14
-11 22 0 8 -4 13 -9 9 -6 -3 -14 3 -20 12 -6 10 -11 14 -12 8z m24 -51 c-7
-18 -16 -10 -20 18 -3 17 -1 19 11 9 8 -7 12 -19 9 -27z"/>
<path d="M6645 2411 c-3 -5 -2 -12 3 -15 5 -3 9 1 9 9 0 17 -3 19 -12 6z"/>
<path d="M7497 6673 c-4 -3 -7 -11 -7 -17 0 -6 5 -5 12 2 6 6 9 14 7 17 -3 3
-9 2 -12 -2z"/>
<path d="M736 6126 c6 -15 4 -17 -6 -11 -9 6 -11 4 -5 -4 5 -9 10 -10 18 -2 8
8 7 14 -2 24 -10 10 -11 8 -5 -7z"/>
<path d="M7730 6058 c0 -4 4 -8 9 -8 6 0 12 4 15 8 3 5 -1 9 -9 9 -8 0 -15 -4
-15 -9z"/>
<path d="M7745 6020 c3 -5 8 -10 11 -10 2 0 4 5 4 10 0 6 -5 10 -11 10 -5 0
-7 -4 -4 -10z"/>
<path d="M7790 6007 c-12 -21 -12 -21 6 -7 10 8 20 15 22 16 2 1 -1 4 -5 7 -5
3 -15 -4 -23 -16z"/>
<path d="M685 5989 c-4 -6 -5 -12 -2 -15 2 -3 7 2 10 11 7 17 1 20 -8 4z"/>
<path d="M7813 5977 c9 -8 17 -17 17 -20 0 -4 -8 -4 -17 0 -13 4 -11 -1 7 -18
14 -14 27 -24 29 -22 3 2 0 8 -6 14 -6 6 -9 17 -6 24 2 8 -6 19 -19 25 -21 10
-21 10 -5 -3z"/>
<path d="M3295 5860 c-4 -6 -11 -7 -17 -4 -7 4 -8 2 -4 -5 4 -6 12 -8 18 -5 7
4 8 2 4 -4 -5 -9 -13 -9 -27 -2 -15 8 -19 8 -17 -2 2 -7 -3 -12 -10 -10 -8 1
-11 -2 -7 -8 5 -9 -15 -15 -38 -11 -5 1 -6 -3 -3 -8 3 -5 -1 -14 -9 -21 -9 -7
-15 -8 -15 -2 0 5 -8 9 -17 8 -22 -1 -45 -48 -29 -58 8 -5 7 -8 -1 -8 -6 0
-15 5 -18 10 -8 13 -45 13 -45 -1 0 -5 6 -7 13 -3 7 5 7 1 -3 -12 -22 -29 -24
-30 -17 -12 4 11 0 21 -12 27 -23 13 -35 3 -19 -16 9 -11 7 -12 -16 -4 -22 9
-28 7 -38 -9 -9 -13 -16 -16 -24 -9 -8 7 -15 6 -20 -3 -4 -7 -4 -10 0 -7 10 9
214 -194 317 -316 80 -94 189 -235 271 -350 111 -155 361 -552 412 -652 14
-29 30 -54 35 -57 5 -3 36 36 69 87 33 51 95 142 138 202 42 61 77 115 77 120
0 13 -122 206 -241 380 -216 316 -429 572 -569 686 -87 69 -102 77 -113 60 -5
-9 -9 -8 -13 4 -4 9 -3 13 3 10 6 -3 10 -1 10 4 0 14 -17 14 -25 1z m-14 -47
c13 -16 12 -17 -3 -4 -10 7 -18 15 -18 17 0 8 8 3 21 -13z m35 -8 c-1 -8 -5
-17 -8 -21 -5 -4 -4 16 1 34 3 9 9 -1 7 -13z m-322 -103 c3 -5 -1 -9 -9 -9 -8
0 -12 4 -9 9 3 4 7 8 9 8 2 0 6 -4 9 -8z m126 2 c0 -8 -19 -13 -24 -6 -3 5 1
9 9 9 8 0 15 -2 15 -3z"/>
<path d="M3110 5771 c0 -7 -4 -9 -10 -6 -5 3 -10 2 -10 -4 0 -5 4 -12 9 -15
10 -6 25 24 16 32 -3 3 -5 0 -5 -7z"/>
<path d="M5655 5030 c-4 -6 -1 -17 5 -25 9 -11 9 -18 -2 -32 -15 -20 -48 -29
-48 -13 0 5 -5 10 -11 10 -8 0 -8 -4 1 -15 10 -11 9 -18 -3 -30 -12 -11 -17
-12 -20 -2 -4 9 -6 9 -6 0 -1 -6 3 -14 8 -17 5 -3 7 -15 4 -25 -3 -10 1 -22 8
-27 9 -5 11 -2 6 9 -3 9 -2 19 3 22 5 3 7 13 4 23 -5 15 -4 15 6 2 10 -13 11
-13 7 2 -3 9 2 22 11 30 15 11 15 11 5 -3 -7 -9 -10 -19 -6 -22 9 -9 23 -9 21
1 -3 16 15 42 30 42 13 0 11 -4 -6 -16 -12 -8 -20 -19 -17 -24 3 -5 1 -11 -4
-14 -5 -3 -7 -19 -6 -36 1 -16 -1 -27 -6 -24 -5 3 -7 9 -5 13 3 4 -1 8 -9 8
-11 0 -12 -4 -4 -14 9 -9 8 -17 0 -27 -18 -21 4 -28 23 -8 8 10 17 36 19 58 3
39 49 119 61 107 3 -4 6 1 6 10 0 9 -4 18 -8 21 -12 7 -35 -11 -28 -22 3 -6 2
-13 -4 -17 -9 -6 -13 7 -13 48 0 19 -12 23 -22 7z"/>
<path d="M5727 4911 c-14 -5 -12 -8 13 -18 31 -11 40 -4 18 15 -7 5 -21 7 -31
3z"/>
<path d="M5780 4895 c-9 -23 -12 -24 -32 -14 -22 12 -22 11 -5 -8 9 -11 15
-22 12 -25 -3 -3 7 -5 22 -4 28 1 48 36 21 36 -10 0 -9 3 2 10 11 7 11 10 2
10 -7 0 -10 5 -7 10 3 6 4 10 0 10 -3 0 -10 -11 -15 -25z"/>
<path d="M5611 4886 c-10 -11 -9 -14 1 -12 14 2 23 15 15 22 -2 2 -10 -2 -16
-10z"/>
<path d="M7305 4871 c-3 -5 -2 -12 3 -15 5 -3 9 1 9 9 0 17 -3 19 -12 6z"/>
<path d="M7559 4868 c-5 -18 -6 -38 -1 -34 7 8 12 36 6 36 -2 0 -4 -1 -5 -2z"/>
<path d="M7290 4787 c0 -2 6 -10 14 -16 11 -9 16 -9 22 1 4 7 4 10 -1 6 -4 -4
-14 -3 -22 3 -7 6 -13 9 -13 6z"/>
<path d="M5376 4663 c-6 -14 -5 -15 5 -6 7 7 10 15 7 18 -3 3 -9 -2 -12 -12z"/>
<path d="M5419 4611 c6 -10 7 -22 3 -26 -4 -3 0 -5 8 -3 8 2 14 -2 15 -9 0 -6
4 -15 8 -20 5 -4 8 -3 7 2 -1 6 -1 12 0 15 1 3 3 13 5 23 3 15 1 16 -11 6 -12
-10 -16 -8 -21 9 -3 12 -9 22 -15 22 -5 0 -4 -8 1 -19z"/>
<path d="M5278 4503 c-19 -32 -42 -70 -51 -84 -14 -21 -15 -26 -2 -26 8 0 12
4 9 8 -6 10 41 80 50 74 3 -3 4 -2 1 1 -2 4 5 24 16 45 29 58 16 47 -23 -18z"/>
<path d="M5470 4551 c0 -6 4 -13 10 -16 6 -3 7 1 4 9 -7 18 -14 21 -14 7z"/>
<path d="M5405 4531 c-3 -5 -2 -12 3 -15 5 -3 9 1 9 9 0 17 -3 19 -12 6z"/>
<path d="M5465 4520 c22 -27 25 -46 11 -70 -7 -12 -6 -13 4 -3 8 7 14 26 15
43 1 16 -1 28 -3 25 -3 -3 -15 3 -26 12 l-21 18 20 -25z"/>
<path d="M5433 4526 c4 -5 0 -20 -8 -32 -8 -13 -11 -25 -6 -29 6 -3 8 -14 6
-25 -2 -12 0 -18 6 -15 5 4 7 10 4 15 -5 9 19 33 26 25 3 -2 5 4 6 15 1 10 -8
26 -20 36 -12 11 -19 15 -14 10z m17 -50 c-17 -22 -32 -9 -18 14 8 12 16 16
22 10 6 -6 4 -15 -4 -24z"/>
<path d="M5309 4508 c-6 -20 -6 -39 0 -42 4 -3 7 6 7 20 0 20 -4 32 -7 22z"/>
<path d="M5380 4495 c-7 -8 -17 -12 -24 -8 -6 4 -5 -1 3 -10 14 -18 26 -24 17
-8 -8 12 19 33 29 23 5 -4 5 -1 1 6 -9 15 -11 15 -26 -3z"/>
<path d="M7121 4464 c6 -7 16 -11 21 -8 11 7 3 17 -18 20 -12 2 -13 -1 -3 -12z"/>
<path d="M5353 4453 c4 -3 -1 -16 -10 -27 -18 -21 -18 -21 4 -2 20 16 23 36 6
36 -4 0 -3 -3 0 -7z"/>
<path d="M5319 4433 c-13 -16 -12 -17 4 -4 16 13 21 21 13 21 -2 0 -10 -8 -17
-17z"/>
<path d="M5395 4429 c-4 -6 -5 -12 -2 -15 2 -3 7 2 10 11 7 17 1 20 -8 4z"/>
<path d="M7150 4414 c0 -8 5 -12 10 -9 6 4 8 11 5 16 -9 14 -15 11 -15 -7z"/>
<path d="M836 4391 c-4 -5 3 -7 14 -4 23 6 26 13 6 13 -8 0 -17 -4 -20 -9z"/>
<path d="M5395 4392 c3 -3 0 -11 -6 -18 -7 -9 -6 -14 3 -20 7 -4 10 -3 5 1 -4
5 0 16 8 25 13 15 13 17 0 17 -8 0 -13 -3 -10 -5z"/>
<path d="M1370 4375 c-6 -8 -2 -11 14 -11 12 0 23 5 23 11 0 7 -6 12 -14 12
-7 0 -18 -5 -23 -12z"/>
<path d="M5475 4379 c-4 -6 -5 -12 -2 -15 2 -3 7 2 10 11 7 17 1 20 -8 4z"/>
<path d="M800 4369 c0 -5 5 -7 10 -4 6 3 10 8 10 11 0 2 -4 4 -10 4 -5 0 -10
-5 -10 -11z"/>
<path d="M5191 4357 c-13 -21 -12 -21 5 -5 10 10 16 20 13 22 -3 3 -11 -5 -18
-17z"/>
<path d="M7145 4359 c-4 -5 -11 -6 -17 -3 -8 5 -9 1 -3 -12 4 -10 8 -33 9 -51
0 -25 3 -30 13 -21 8 6 11 13 8 16 -3 3 0 11 6 19 6 7 8 13 3 13 -5 0 -2 5 6
10 13 9 13 10 0 10 -12 0 -12 2 -2 9 11 7 11 9 -2 14 -8 3 -18 2 -21 -4z m11
-34 c-3 -23 -12 -26 -13 -5 -1 11 2 20 7 20 4 0 7 -7 6 -15z"/>
<path d="M698 4323 c7 -3 16 -2 19 1 4 3 -2 6 -13 5 -11 0 -14 -3 -6 -6z"/>
<path d="M5157 4301 c-9 -16 -17 -33 -17 -38 0 -4 9 7 21 26 11 18 18 35 17
37 -2 2 -12 -10 -21 -25z"/>
<path d="M7841 4284 c0 -11 3 -14 6 -6 3 7 2 16 -1 19 -3 4 -6 -2 -5 -13z"/>
<path d="M679 4269 l-24 -20 28 17 c15 9 27 18 27 20 0 8 -8 4 -31 -17z"/>
<path d="M7045 4259 c-4 -17 -4 -33 -1 -36 3 -4 6 1 6 11 0 9 4 15 9 12 4 -3
6 6 3 19 -6 33 -9 31 -17 -6z"/>
<path d="M5440 4269 c0 -5 5 -7 10 -4 6 3 10 8 10 11 0 2 -4 4 -10 4 -5 0 -10
-5 -10 -11z"/>
<path d="M5421 4247 c-1 -11 -10 -32 -22 -48 -11 -16 -17 -29 -12 -29 13 0 46
67 40 82 -4 8 -6 6 -6 -5z"/>
<path d="M5116 4233 c-6 -14 -5 -15 5 -6 7 7 10 15 7 18 -3 3 -9 -2 -12 -12z"/>
<path d="M7132 4240 c2 -10 -3 -14 -17 -12 l-20 4 20 -16 c11 -8 23 -16 27
-16 10 0 5 37 -6 47 -4 5 -6 1 -4 -7z"/>
<path d="M1360 4210 c0 -5 5 -10 10 -10 6 0 10 5 10 10 0 6 -4 10 -10 10 -5 0
-10 -4 -10 -10z"/>
<path d="M1460 4211 c0 -6 4 -13 10 -16 6 -3 7 1 4 9 -7 18 -14 21 -14 7z"/>
<path d="M5091 4187 c-8 -12 -21 -32 -29 -44 -8 -13 -12 -23 -9 -23 7 0 59 81
55 85 -2 2 -10 -6 -17 -18z"/>
<path d="M5356 4162 c-3 -4 4 -9 15 -9 23 -2 25 3 4 10 -8 4 -16 3 -19 -1z"/>
<path d="M1480 4140 c6 -11 12 -20 14 -20 2 0 2 9 -1 20 -3 11 -9 20 -15 20
-5 0 -4 -9 2 -20z"/>
<path d="M1403 4135 c0 -8 4 -12 9 -9 5 3 6 10 3 15 -9 13 -12 11 -12 -6z"/>
<path d="M5345 4100 c-14 -22 -25 -45 -25 -52 0 -7 6 -2 13 12 7 14 21 37 31
53 10 15 16 27 12 27 -3 0 -17 -18 -31 -40z"/>
<path d="M5015 4060 c-9 -16 -13 -30 -11 -30 3 0 12 14 21 30 9 17 13 30 11
30 -3 0 -12 -13 -21 -30z"/>
<path d="M7013 4065 c0 -8 4 -12 9 -9 5 3 6 10 3 15 -9 13 -12 11 -12 -6z"/>
<path d="M5283 4003 c4 -3 1 -13 -6 -22 -11 -14 -10 -14 5 -2 16 12 16 31 1
31 -4 0 -3 -3 0 -7z"/>
<path d="M4942 3930 c-18 -29 -15 -38 4 -12 9 13 14 25 12 27 -2 2 -9 -5 -16
-15z"/>
<path d="M5245 3919 c-4 -6 -5 -12 -2 -15 2 -3 7 2 10 11 7 17 1 20 -8 4z"/>
<path d="M4901 3863 c-10 -26 -10 -27 4 -9 8 11 15 23 15 28 0 15 -7 8 -19
-19z"/>
<path d="M5205 3849 c-4 -6 -5 -12 -2 -15 2 -3 7 2 10 11 7 17 1 20 -8 4z"/>
<path d="M5166 3788 c3 -5 10 -6 15 -3 13 9 11 12 -6 12 -8 0 -12 -4 -9 -9z"/>
<path d="M4822 3280 c-45 -22 -83 -39 -85 -39 -3 0 -29 -10 -131 -51 -101 -40
-285 -161 -718 -472 -175 -126 -454 -355 -445 -364 4 -4 371 147 411 168 11 6
36 27 55 46 135 133 607 483 944 701 101 65 92 68 -31 11z"/>
<path d="M2043 2462 c0 -10 7 -19 14 -19 17 0 17 12 -1 27 -12 9 -15 8 -13 -8z"/>
<path d="M6749 2479 c0 -2 -2 -12 -4 -22 -5 -26 -12 -30 -19 -12 -4 11 -2 14
6 9 7 -5 8 -3 3 5 -14 23 -28 -5 -15 -30 l12 -22 19 24 c12 15 17 17 13 7 -4
-11 -1 -18 6 -18 6 0 8 -5 4 -12 -4 -7 -3 -8 4 -4 7 4 12 3 12 -3 0 -5 -6 -11
-12 -14 -10 -4 -10 -7 0 -18 10 -11 12 -11 12 2 0 12 2 12 10 -1 13 -20 12
-33 -2 -24 -7 4 -8 3 -4 -5 4 -6 11 -9 15 -6 5 2 16 -4 26 -15 18 -20 41 -28
31 -11 -8 13 48 68 65 63 10 -3 10 -1 -1 7 -14 10 -7 16 13 12 5 -1 6 3 2 9
-5 8 -11 7 -21 -1 -13 -11 -19 -5 -15 15 1 5 -5 4 -13 -4 -9 -7 -16 -9 -16 -4
-1 5 -10 -2 -20 -15 -11 -13 -20 -22 -21 -20 -7 33 -6 45 2 55 7 8 1 11 -21 9
-23 -2 -36 4 -50 23 -11 13 -20 23 -21 21z m64 -62 c4 3 8 1 8 -5 3 -23 4 -27
23 -52 10 -14 16 -18 13 -10 -2 9 2 25 10 35 14 19 15 19 9 -5 l-7 -25 14 24
c9 15 17 20 21 12 4 -6 2 -11 -4 -11 -6 0 -9 -4 -5 -9 9 -15 -50 -52 -63 -39
-6 6 -8 17 -5 26 4 10 2 13 -5 8 -6 -3 -14 3 -17 16 -4 13 -15 32 -24 43 -16
20 -16 20 5 2 11 -9 24 -14 27 -10z"/>
<path d="M6920 2458 c-12 -22 -12 -22 6 -6 10 10 15 20 12 24 -4 3 -12 -5 -18
-18z"/>
<path d="M1556 2444 c-5 -14 -4 -15 9 -4 17 14 19 20 6 20 -5 0 -12 -7 -15
-16z"/>
<path d="M1617 2443 c-4 -3 -7 -11 -7 -17 0 -6 5 -5 12 2 6 6 9 14 7 17 -3 3
-9 2 -12 -2z"/>
<path d="M1640 2441 c0 -5 7 -15 17 -22 15 -13 15 -12 4 9 -12 23 -21 28 -21
13z"/>
<path d="M2011 2424 c0 -11 3 -14 6 -6 3 7 2 16 -1 19 -3 4 -6 -2 -5 -13z"/>
<path d="M6281 2423 c-5 -10 -10 -21 -10 -26 -2 -14 24 -35 37 -30 7 3 12 2
10 -3 -2 -5 0 -10 5 -11 4 -2 7 0 6 3 -1 8 22 24 34 24 5 0 5 -5 2 -10 -3 -6
1 -13 10 -16 11 -5 13 -10 5 -19 -9 -11 -6 -12 11 -8 15 4 20 3 15 -5 -4 -7
-1 -12 9 -12 9 0 14 4 11 9 -3 5 2 15 11 22 15 12 16 12 11 -3 -7 -16 14 -20
28 -5 10 10 26 9 20 -1 -3 -5 1 -9 9 -9 22 0 18 15 -5 22 -11 4 -18 10 -15 15
3 5 1 11 -4 15 -5 3 -8 14 -6 24 2 10 -3 18 -11 18 -10 0 -11 -4 -3 -13 18
-22 -15 -23 -41 0 -13 11 -19 14 -12 5 6 -9 9 -18 6 -22 -9 -9 -44 26 -37 37
4 6 -1 5 -10 -3 -9 -7 -14 -17 -12 -22 11 -18 -29 -27 -52 -12 -18 12 -21 19
-12 34 5 10 7 19 5 19 -3 0 -10 -8 -15 -17z m114 -53 c-3 -5 0 -12 6 -16 7 -4
9 -3 6 3 -4 6 1 17 10 24 14 12 16 12 11 -1 -4 -11 0 -16 13 -16 11 0 19 4 19
9 0 4 5 5 11 1 8 -4 7 -9 -2 -15 -11 -7 -11 -9 -1 -9 7 0 10 -5 6 -11 -5 -8
-10 -6 -16 5 -8 14 -13 15 -24 5 -19 -15 -65 7 -57 27 3 8 9 11 14 8 5 -3 7
-9 4 -14z"/>
<path d="M6124 2403 c1 -7 8 -19 14 -25 9 -9 12 -6 12 13 0 15 -6 26 -14 26
-7 0 -13 -6 -12 -14z"/>
<path d="M6739 2403 c-11 -13 -11 -17 -1 -20 6 -3 9 -10 6 -15 -5 -7 -2 -8 6
-3 9 6 12 4 8 -7 -4 -8 -1 -15 7 -15 10 0 10 7 -1 32 -7 18 -10 35 -7 39 4 3
4 6 1 6 -3 0 -12 -7 -19 -17z"/>
<path d="M2465 2400 c-3 -5 -12 -7 -20 -3 -10 3 -13 1 -10 -9 7 -18 35 -19 35
-2 0 7 6 15 13 17 9 4 9 6 0 6 -6 1 -14 -3 -18 -9z"/>
<path d="M6249 2408 c-7 -31 -7 -48 1 -48 6 0 9 -5 8 -11 -2 -7 9 -15 24 -19
20 -6 25 -5 22 5 -3 8 -14 11 -27 7 -20 -5 -20 -4 -8 11 13 16 8 22 -13 18 -5
-1 -4 4 3 13 8 10 9 16 1 21 -5 3 -10 5 -11 3z"/>
<path d="M1865 2339 c-4 -6 -5 -12 -2 -15 2 -3 7 2 10 11 7 17 1 20 -8 4z"/>
<path d="M6196 2334 c-9 -22 3 -32 14 -14 12 19 12 30 1 30 -5 0 -12 -7 -15
-16z"/>
<path d="M6227 2337 c-3 -8 1 -14 8 -14 7 0 11 6 8 14 -3 7 -6 13 -8 13 -2 0
-5 -6 -8 -13z"/>
<path d="M6345 2341 c-3 -5 -2 -12 3 -15 5 -3 9 1 9 9 0 17 -3 19 -12 6z"/>
<path d="M2601 2337 c28 -21 59 -36 59 -29 0 5 -11 14 -25 20 -24 11 -44 16
-34 9z"/>
<path d="M5876 2332 c-3 -5 1 -9 9 -9 8 0 12 4 9 9 -3 4 -7 8 -9 8 -2 0 -6 -4
-9 -8z"/>
<path d="M6586 2328 c3 -5 10 -6 15 -3 13 9 11 12 -6 12 -8 0 -12 -4 -9 -9z"/>
<path d="M2311 2304 c0 -11 3 -14 6 -6 3 7 2 16 -1 19 -3 4 -6 -2 -5 -13z"/>
<path d="M6805 2310 c-3 -5 1 -10 10 -10 9 0 13 5 10 10 -3 6 -8 10 -10 10 -2
0 -7 -4 -10 -10z"/>
<path d="M2670 2300 c0 -5 5 -10 11 -10 5 0 7 5 4 10 -3 6 -8 10 -11 10 -2 0
-4 -4 -4 -10z"/>
<path d="M5850 2300 c0 -5 5 -10 10 -10 6 0 10 5 10 10 0 6 -4 10 -10 10 -5 0
-10 -4 -10 -10z"/>
<path d="M5820 2289 c0 -5 5 -7 10 -4 6 3 10 8 10 11 0 2 -4 4 -10 4 -5 0 -10
-5 -10 -11z"/>
<path d="M2723 2267 c0 -8 6 -14 14 -14 9 0 10 4 2 14 -6 7 -12 13 -14 13 -1
0 -2 -6 -2 -13z"/>
<path d="M5790 2276 c0 -2 7 -7 16 -10 8 -3 12 -2 9 4 -6 10 -25 14 -25 6z"/>
<path d="M5766 2262 c-3 -5 1 -9 9 -9 8 0 12 4 9 9 -3 4 -7 8 -9 8 -2 0 -6 -4
-9 -8z"/>
<path d="M2779 2233 c15 -30 30 -38 44 -23 9 10 9 11 -2 5 -9 -5 -20 0 -33 16
-18 22 -18 22 -9 2z"/>
<path d="M6740 2226 c7 -7 13 -7 20 0 6 6 3 10 -10 10 -13 0 -16 -4 -10 -10z"/>
<path d="M2570 2226 c0 -2 7 -7 16 -10 8 -3 12 -2 9 4 -6 10 -25 14 -25 6z"/>
<path d="M6607 2219 c7 -7 15 -10 18 -7 3 3 -2 9 -12 12 -14 6 -15 5 -6 -5z"/>
<path d="M5845 2211 c-3 -5 -2 -12 3 -15 5 -3 9 1 9 9 0 17 -3 19 -12 6z"/>
<path d="M3972 1080 c0 -14 2 -19 5 -12 2 6 2 18 0 25 -3 6 -5 1 -5 -13z"/>
<path d="M3994 1085 c-3 -8 -4 -20 -2 -27 3 -7 7 -1 10 15 6 29 1 36 -8 12z"/>
<path d="M4020 1085 c-7 -8 -9 -23 -5 -32 6 -17 7 -17 21 1 14 20 14 20 15 0
0 -10 3 -13 6 -7 2 7 -2 22 -10 33 -12 18 -16 19 -27 5z m7 -27 c-3 -8 -6 -5
-6 6 -1 11 2 17 5 13 3 -3 4 -12 1 -19z"/>
<path d="M3941 1067 c-13 -21 -12 -21 5 -5 10 10 16 20 13 22 -3 3 -11 -5 -18
-17z"/>
</g>
</svg>
