<!DOCTYPE svg PUBLIC "-//W3C//DTD SVG 20010904//EN"
 "http://www.w3.org/TR/2001/REC-SVG-20010904/DTD/svg10.dtd">
<svg version="1.0" xmlns="http://www.w3.org/2000/svg" viewBox="0 0 512 512">
  <path d="M228.5 62.1c-62.8 5.7-116.6 26.4-160 61.2-11.2 9-29.7 28.5-37.7 39.8-13.5 18.9-23.5 42-28 64.2-3.2 16-3.2 41.4 0 57.4 4.5 22.2 14.5 45.3 28 64.2 8 11.3 26.5 30.8 37.7 39.8 75.2 60.4 188.3 78.8 287.4 46.8 43.6-14.1 79.2-35.9 108.1-66.2 24.1-25.2 39.7-54.8 45.6-86.8 2.8-14.8 2.6-40.2-.4-55.2-10.5-52.7-47.5-98.6-104.7-130-31.2-17.2-67.6-28.6-107.6-33.8-13.9-1.9-54.8-2.7-68.4-1.4zM295 93.5c53.6 7.3 100.5 27.4 135 57.7 26.2 23.1 43.1 50.7 49.6 80.8 2.5 11.7 2.5 36.2 0 47.8-7.8 36.6-31.4 69.9-67.3 94.8-96.2 67.1-246 60.5-331.2-14.6-25.3-22.3-42.3-50.3-48.7-80-2.5-11.8-2.5-36.2 0-48C48.3 158 127.7 101.7 230 92c13.3-1.2 51.3-.4 65 1.5z"/>
</svg>
