<svg aria-hidden="true" style="position: absolute; width: 0; height: 0; overflow: hidden;" version="1.1" xmlns="http://www.w3.org/2000/svg" xmlns:xlink="http://www.w3.org/1999/xlink">
<defs>
<symbol id="icon-border" viewBox="0 0 32 32">
<path d="M0.896 19.728v7.824h30.208v-15.648h-30.208v7.824zM30.048 19.744v6.752h-28.096v-13.504h28.096v6.752z"></path>
</symbol>
<symbol id="icon-ellipse" viewBox="0 0 32 32">
<path  d="M14.281 3.881c-3.925 0.356-7.287 1.65-10 3.825-0.7 0.563-1.856 1.781-2.356 2.488-0.844 1.181-1.469 2.625-1.75 4.012-0.2 1-0.2 2.587 0 3.587 0.281 1.387 0.906 2.831 1.75 4.012 0.5 0.706 1.656 1.925 2.356 2.488 4.7 3.775 11.769 4.925 17.962 2.925 2.725-0.881 4.95-2.244 6.756-4.137 1.506-1.575 2.481-3.425 2.85-5.425 0.175-0.925 0.163-2.512-0.025-3.45-0.656-3.294-2.969-6.162-6.544-8.125-1.95-1.075-4.225-1.787-6.725-2.112-0.869-0.119-3.425-0.169-4.275-0.087zM18.438 5.844c3.35 0.456 6.281 1.713 8.438 3.606 1.637 1.444 2.694 3.169 3.1 5.050 0.156 0.731 0.156 2.262 0 2.988-0.488 2.288-1.962 4.369-4.206 5.925-6.012 4.194-15.375 3.781-20.7-0.913-1.581-1.394-2.644-3.144-3.044-5-0.156-0.738-0.156-2.262 0-3 0.994-4.625 5.956-8.144 12.35-8.75 0.831-0.075 3.206-0.025 4.063 0.094z"></path>
</symbol>
<symbol id="icon-vertical" viewBox="0 0 32 32">
<path d="M14.933 16v16h2.133v-32h-2.133v16z"></path>
</symbol>
</defs>
</svg>
